<?xml version="1.0" encoding="utf-8"?>
<!-- Generator: Adobe Illustrator 23.0.2, SVG Export Plug-In . SVG Version: 6.00 Build 0)  -->
<svg version="1.1" xmlns="http://www.w3.org/2000/svg" xmlns:xlink="http://www.w3.org/1999/xlink" x="0px" y="0px"
	 viewBox="0 0 709.97 653.29" style="enable-background:new 0 0 709.97 653.29;" xml:space="preserve">
<style type="text/css">
	.st0{fill:#E72A8B;}
	.st1{fill:#FFFFFF;}
	.st2{fill:#FFFFFF;stroke:#000000;stroke-width:2;stroke-linecap:round;stroke-linejoin:round;stroke-miterlimit:10;}
	.st3{fill:none;stroke:#000000;stroke-width:2;stroke-linecap:round;stroke-linejoin:round;stroke-miterlimit:10;}
	.st4{fill:#808080;stroke:#231F20;stroke-width:2;stroke-miterlimit:10;}
	.st5{fill:#808080;}
</style>
<g>
	<g>
		<path class="st0" d="M173.07,400.62c-34.08,12.8-63.5-28.56-39.39-55.84c0.45-0.51,4.44-6.5,4.82-7.05
			c5.3-7.71,8.2-15.82,9.72-21.39c0.38-1.4,2.42-1.26,2.61,0.18c0.78,5.98,1.51,14.23,0.38,18.67c-1.14,4.47-0.19,8.29,2.96,6.99
			c3.16-1.3,16.52-5.75,17.99-24.76c0.62-7.94,9.5-19.84,15.61-27.16c1.22-1.46,3.56-0.18,3,1.64c-1.91,6.2-4.1,14.48-3.88,19.45
			c0.39,8.7-0.46,20.38,7.51,23c7.97,2.62,7.82,11.8,12.39,12.13s19.86-13.35,20.74-25.54c0.89-12.18,1.13-29.52,10.29-43.14
			c4.31-6.41,8.56-13.5,11.84-19.22c1.08-1.89,3.95-0.91,3.69,1.25c-0.67,5.55-0.57,11.26,2.17,13.13c5.83,4,14.92-15.64,11.63-26.6
			c-1.89-6.32-0.78-16.69,0.51-24.35c0.37-2.22,3.48-2.48,4.19-0.34c2.3,6.87,6.86,15.96,15.73,21.84
			c14.01,9.28,14.58,19.58,16.01,35c1.43,15.41-1.15,28.08-1.15,28.08s6.98-1.25,11.26-9.75c2.7-5.35,4.66-15.68,5.75-22.6
			c0.3-1.9,2.91-2.16,3.59-0.37c1.77,4.67,4.17,11.34,6.25,18.37c3.39,11.42-2.08,21.17-7.78,29.43s-24.04,27.99-41.64,31.3
			s-34.23,8.87-46.27,17.41C216.43,382.58,194.01,392.76,173.07,400.62z"/>
		<path class="st1" d="M233.44,360.66c0,0,12.02-30.24,10.5-38.27c-1.52-8.03-0.22-31.48,1.52-35.6c1.74-4.12,3.69-9.33,3.69-9.33
			s-1.74,12.37,4.56,25.62s6.3,18.23,6.3,18.23s3.26-4.34,4.34-12.59c1.09-8.25,4.56-17.8,4.56-17.8s3.69,18.45,6.08,25.4
			c2.39,6.95-0.22,15.85-0.22,15.85s4.29-2.29,6.3-6.95c0.71-1.64,1.52-6.73,1.52-6.73s2.6,10.2-2.39,16.28
			c-4.99,6.08-15.2,8.9-24.1,11.94C247.19,349.74,233.44,360.66,233.44,360.66z"/>
		<path class="st1" d="M175.1,392.47c3-1.26,7.9-3.49,10.52-7.9c2.62-4.41,2.62-14.47,2.62-14.47s-3.58,3.31-4.14,5.93
			c-0.55,2.62-3.72,5.65-3.72,5.65s-0.96-5.1,0.55-9.92s-2.48-12.82-2.48-12.82s0.69,7.58-1.1,10.89c-1.79,3.31-6.48,6.75-7.31,11.3
			s-5.57,13.9-5.57,13.9S170.1,394.57,175.1,392.47z"/>
	</g>
	<polygon class="st2" points="561.98,430.56 581.46,451.92 507.63,475.45 495.19,453.28 	"/>
	<polygon class="st2" points="489.56,406.75 485.17,462.68 569.98,461.59 566.69,402.73 	"/>
	<polygon class="st2" points="263.64,356.09 228.92,345.02 182.52,391.12 226.52,399.8 	"/>
	<path class="st2" d="M287.29,342.62l-80.23,33.23c0,0,70.05,41.61,70.35,40.71s34.43-25.74,34.43-25.74L287.29,342.62z"/>
	<path class="st2" d="M311.18,322.74c0,0-25.9,22.91-40.6,39.24c-14.7,16.33-20.9,22.86-20.9,22.86s-13.32,1.26-22.42,6.98
		s-21.22,13.9-26.57,18.9c-5.36,5-1.46,8.6-1.46,8.6s-1.96,4.29-1.07,6.61c0.89,2.32,2.86,2.86,2.86,2.86s-2.37,4.53,0.22,6.39
		c2.43,1.76,6.75-0.14,6.75-0.14s-1.28,3.31,0.14,4.74s4.77,1.32,9.59-2.43c4.82-3.75,16.22-13.38,16.22-13.38s8.15-7.32,12.44-7.32
		c4.29,0,4.29,0,4.29,0s-0.04,3.84-2.67,6.91c-3.47,4.05-6.44,9.87-6.08,12.55c0.36,2.68,2.57,4.48,2.57,4.48s9.22-7.34,12.97-11.62
		c3.75-4.29,8.56-11.96,9.28-15c0.71-3.04,0.89-15.89,1.96-18.57c1.07-2.68,78.03-51.25,78.03-51.25s2.32-13.21-3.57-19.28
		S311.18,322.74,311.18,322.74z"/>
	<path class="st3" d="M199.22,419.31c0,0,10.38-7.93,19.7-13.87"/>
	<path class="st3" d="M201,428.77c0,0,15.49-14.42,22.51-18.34"/>
	<path class="st3" d="M207.97,435.02c0,0,17.58-16.48,22.58-19.45"/>
	<path class="st4" d="M438.15,269.75v-31.19c0-16.16,14.35-29.26,32.06-29.26h71.82c17.71,0,32.06,13.1,32.06,29.26V354.1
		L438.15,269.75z"/>
	<path class="st2" d="M540.34,377.98c0,0-52.84,51.49-55.53,52.84s-24.09-1.52-31.46,2.75c-7.38,4.27-28.53,16.3-28.73,17.28
		c-0.19,0.97,4.85,5.43,6.02,5.63c1.16,0.19-15.14,16.11-15.14,16.69c0,0.58,4.27,3.49,7.76,2.33s8.15-4.85,8.15-4.85
		s-9.35,15.9-9.35,17.18c0,1.29,7.39,2.57,10.71-0.43c3.32-3,9.96-14.46,9.96-14.46l6.43-2.04l-8.87,19.56c0,0,4.45,1.55,8.41-1.45
		c3.96-3,10.2-13.6,10.2-13.6s-2.78,12.21-1.61,12.75c1.18,0.54,5.1-1.39,8.17-5.79c3.57-5.12,4.04-9.74,4.04-9.74
		s15.53-3.75,23.35-12.21c7.82-8.46,13.39-15,13.39-15s34.53-16.95,49.92-26.14s22.58-15.19,22.58-15.19s14.59,1,19.98-13.19
		c5.4-14.19-5.2-31.17-5.2-31.17s-2-26.78-10.59-45.96c-8.59-19.18-35.17-47.56-58.75-55.16c-23.58-7.59-68.08-8.04-94.46,5.14
		c-26.38,13.19-36.64,26.43-36.64,26.43s-17.19,2.8-30.97,8.59c-13.79,5.8-21.38,10.99-21.38,10.99s-6.59-2.4-12.19-2
		c-4.02,0.29-11.75,6.25-15.79,9.58c-1.58,1.31-2.21,3.45-1.6,5.41v0c0,0,16.19-1.4,24.38,6c8.19,7.39,7.97,16.07,7.97,16.07
		l61.35,9.12c0,0,35.09,6.52,42.07,3.84s17.43-12.13,17.43-12.13s17.08,6.04,33.58,8.02c13.33,1.59,19.46,3.26,19.46,3.26
		s1.43,1.25,7.16,5.9c5.73,4.65,8.59,5.37,8.59,5.37L540.34,377.98z"/>
	<polygon class="st2" points="506.63,380.55 444.97,369.48 405.07,392.82 423.62,434.31 	"/>
	<polygon class="st5" points="428.41,418.14 463.9,396.59 432.03,389.64 411.03,401.19 414.62,414.55 	"/>
	<polygon class="st5" points="445.21,373.69 464.15,377.38 448.4,388.05 430.45,384.26 	"/>
	<polygon class="st2" points="428.77,439.98 506.73,390.12 506.73,381.01 425.03,432.36 	"/>
	<path class="st2" d="M454.29,350.16c0,0,1.91,8.31-2.18,17.54c-2.74,6.2-7.23,11.36-10.84,12.81c0,0-7.9,2.49-5.96-6.79
		C437.26,364.43,454.29,350.16,454.29,350.16z"/>
	<path d="M417.74,399.83c0,0,10.9-2.61,18.31-8.89c7.58-6.42,9.96-10.77,9.96-10.77l-5.92-2.15c0,0,2.97-8.7,8.62-14.09
		c5.65-5.39,8.08-10.76,8.8-20.73c1.04-14.46-7.57-29.31-13.65-32.5c-8.53-4.47-22.24-4.07-22.24-4.07s-22.26,5.34-33.08,11.74
		c-10.82,6.4-17.22,16.12-17.22,16.12v-5.08c0,0-4.19,0.22-6.18,6.18s-1.8,12.2-1.8,12.2l41.53,6.13L417.74,399.83z"/>
	<path class="st3" d="M533.16,368.18c0,0-0.26-10.27,7.98-14.49"/>
	<path class="st3" d="M517.41,356.91c0,0-4.47-4.29-6.8-15.21"/>
	<path class="st3" d="M540.34,377.98c0,0,13.06-12.31,32.76-2.57c16.86,8.34,5.65,28.66,5.65,28.66"/>
	<path class="st3" d="M430.56,456.93c0,0,8.56-6.9,15.33-10.32"/>
	<path class="st3" d="M431.42,470.64c0,0,6.43-7.9,9.33-9.93c2.9-2.03,10.92-8.27,10.92-8.27"/>
	<path class="st3" d="M449.17,470.89c0,0,5.4-7,10.81-11.83"/>
	<path class="st3" d="M458.92,475.39c0,0,3.67-6.57,6.95-10.14"/>
	<path class="st3" d="M421.27,316.8l15.95-10.97c0,0,13.76-7.38,24.34,3.95c14.66,15.69,8.19,31.01,8.19,31.01l-5.38,4.84"/>
	<path class="st3" d="M340.75,309.75c0,0,13.91,6.73,17.41,20.73c3.29,13.14,1.43,16.71,1.43,16.71"/>
	<path class="st3" d="M393.21,301.79c0,0-1.25,6.1,1.66,19"/>
	<path class="st3" d="M593.55,359.71c0,0-9.5-14.13-40.28-9.6"/>
	<path class="st3" d="M528.13,310.22c0,0,25.83-13.72,45-1.41"/>
	<polygon class="st2" points="404.87,353.92 428.77,439.98 300.46,419.21 277.7,335 	"/>
	<g>
		<path class="st0" d="M542.21,487.24c-8.49-11.25-0.48-28.99,8.88-38.88s30.02-22.77,35.62-28.72c4.47-4.75,7.94-11.27,10.1-16.03
			c0.64-1.4,2.73-0.95,2.74,0.59c0.01,6.65-0.46,16.6-3.09,22.65c-4.22,9.69-3.15,12.32-3.15,12.32s1.81,3.88,5.48-3.2
			c1.67-3.22,3.44-4.82,5.01-5.57c1.76-0.84,3.74,0.84,3.24,2.73c-0.53,2.02-0.74,5.24,0.55,10.06c2.6,9.71,2.41,19.19,2.41,19.19
			l5.18-8.67c0.62-1.04,2.16-0.94,2.62,0.18c1.72,4.19,4.36,12.89,1.05,21.28c-6.33,16.08-20.31,20.82-39.46,22.63
			C569.48,498.72,550.52,498.25,542.21,487.24z"/>
		<path class="st1" d="M559.35,492.64c2.99,0.62,9.47-0.88,10.37-6.43c1.16-7.09-2.63-18.87-1.23-25.05
			c2.65-11.71,9.12-20.69,9.12-20.69s-9.1,6.87-12.47,14.96c-2.61,6.26-5.69,11.63-5.69,11.63s-4.17-13.54-3.95-10.89
			c0.11,1.32,0.64,5.23-3.28,11.1c-4.12,6.14-4.81,12.03-2.23,18.25C551.19,488.4,555.28,491.79,559.35,492.64z"/>
	</g>
</g>
</svg>
